<svg width="512" height="512" viewBox="0 0 512 512" fill="none" xmlns="http://www.w3.org/2000/svg">
<g stroke="currentColor" stroke-width="22" stroke-linecap="round">
<path d="M256 246C212 204 180 162 159 112"/>
<path d="M256 246C234 194 228 146 233 88"/>
<path d="M256 246C277 194 296 150 332 103"/>
<path d="M256 246C302 213 344 184 398 166"/>
<path d="M256 246C307 260 352 283 398 322"/>
<path d="M256 246C287 292 311 337 320 405"/>
<path d="M256 246C232 297 211 345 189 415"/>
<path d="M256 246C206 270 162 297 112 346"/>
</g>
<circle cx="256" cy="246" r="66" fill="none" stroke="currentColor" stroke-opacity="0.28" stroke-width="2"/>
<circle cx="256" cy="246" r="38" fill="currentColor"/>
<circle cx="244" cy="232" r="8" fill="white" fill-opacity="0.82"/>
</svg>
